<svg width="44" height="44" viewBox="0 0 44 44" fill="none" xmlns="http://www.w3.org/2000/svg">
<g clip-path="url(#clip0_1_3)">
<rect width="44" height="44" fill="#0C1136"/>
<path d="M50 0H-6V44H50V0Z" fill="white"/>
<path d="M-0.66716 22V44H22H44.6672V22V0H22H-0.66716V22ZM8.74223 14.96C14.545 17.5022 17.5472 24.1707 15.5525 30.0178C15.1092 31.3084 14.0413 33.1662 13.1749 34.1244L12.4697 34.9067L8.96387 24.5422C7.0296 18.832 5.47816 14.1191 5.51846 14.0409C5.6192 13.8649 7.41242 14.3733 8.74223 14.96ZM35.3585 24.6596L31.8728 34.848L31.1072 34.0071C29.4953 32.2471 28.1655 28.7467 28.1453 26.2436C28.1453 22.4889 30.3012 18.3431 33.384 16.2507C35.4593 14.8231 38.6427 13.6302 38.7838 14.2169C38.8241 14.3538 37.2928 19.0667 35.3585 24.6596ZM26.1103 28.7858C28.105 31.9733 29.7572 34.6329 29.7572 34.6916C29.7572 34.7502 26.3118 34.8089 22.1007 34.8089H14.4443L15.2301 33.5769C15.6532 32.912 17.2651 30.3893 18.7762 27.9644C22.2619 22.4498 22.141 22.6258 22.3022 22.8213C22.3828 22.8996 24.0955 25.5982 26.1103 28.7858Z" fill="#182163"/>
</g>
<defs>
<clipPath id="clip0_1_3">
<rect width="44" height="44" fill="white"/>
</clipPath>
</defs>
</svg>
