<?xml version="1.0" standalone="no"?>
<!DOCTYPE svg PUBLIC "-//W3C//DTD SVG 20010904//EN"
 "http://www.w3.org/TR/2001/REC-SVG-20010904/DTD/svg10.dtd">
<svg version="1.0" xmlns="http://www.w3.org/2000/svg"
 width="53.87" height="43.61" viewBox="0 0 225.000000 225.000000"
 preserveAspectRatio="xMidYMid meet">

<g transform="translate(0.000000,225.000000) scale(0.100000,-0.100000)"
fill="#00008B" stroke="none">
<path d="M0 1125 l0 -1125 1125 0 1125 0 0 1125 0 1125 -1125 0 -1125 0 0
-1125z m467 360 c288 -130 437 -471 338 -770 -22 -66 -75 -161 -118 -210 l-35
-40 -174 530 c-96 292 -173 533 -171 537 5 9 94 -17 160 -47z m1321 -496
l-173 -521 -38 43 c-80 90 -146 269 -147 397 0 192 107 404 260 511 103 73
261 134 268 104 2 -7 -74 -248 -170 -534z m-459 -211 c99 -163 181 -299 181
-302 0 -3 -171 -6 -380 -6 l-380 0 39 63 c21 34 101 163 176 287 173 282 167
273 175 263 4 -4 89 -142 189 -305z"/>
</g>
</svg>
